<svg width="100" height="100" viewBox="0 0 100 100" fill="none" xmlns="http://www.w3.org/2000/svg">
    <path d="M25 3.125C25 2.2962 24.6708 1.50134 24.0847 0.915291C23.4987 0.32924 22.7038 0 21.875 0C21.0462 0 20.2513 0.32924 19.6653 0.915291C19.0792 1.50134 18.75 2.2962 18.75 3.125V6.25H12.5C9.18479 6.25 6.00537 7.56696 3.66117 9.91117C1.31696 12.2554 0 15.4348 0 18.75L0 25H100V18.75C100 15.4348 98.683 12.2554 96.3388 9.91117C93.9946 7.56696 90.8152 6.25 87.5 6.25H81.25V3.125C81.25 2.2962 80.9208 1.50134 80.3347 0.915291C79.7487 0.32924 78.9538 0 78.125 0C77.2962 0 76.5013 0.32924 75.9153 0.915291C75.3292 1.50134 75 2.2962 75 3.125V6.25H25V3.125ZM100 87.5C100 90.8152 98.683 93.9946 96.3388 96.3388C93.9946 98.683 90.8152 100 87.5 100H12.5C9.18479 100 6.00537 98.683 3.66117 96.3388C1.31696 93.9946 0 90.8152 0 87.5V31.25H100V87.5ZM70.0938 49.0938C70.4555 49.1113 70.817 49.0551 71.1564 48.9287C71.4958 48.8024 71.806 48.6084 72.0683 48.3585C72.3305 48.1087 72.5392 47.8082 72.6818 47.4753C72.8245 47.1424 72.898 46.784 72.898 46.4219C72.898 46.0597 72.8245 45.7013 72.6818 45.3684C72.5392 45.0355 72.3305 44.735 72.0683 44.4852C71.806 44.2354 71.4958 44.0414 71.1564 43.915C70.817 43.7886 70.4555 43.7325 70.0938 43.75C69.7399 43.7467 69.3889 43.8139 69.0614 43.9478C68.7338 44.0817 68.4362 44.2795 68.186 44.5297C67.9357 44.7799 67.7379 45.0775 67.604 45.4051C67.4701 45.7327 67.4029 46.0836 67.4062 46.4375C67.4062 47.925 68.6063 49.0938 70.0938 49.0938V49.0938ZM72.1937 52.6125H67.9937V78.2687H72.1937V52.6125V52.6125ZM29.275 78.2687V63.8937H43.4063V60.0812H29.275V48.7563H44.675V44.9437H25V78.2687H29.275V78.2687ZM49.875 78.2687H54.1V62.375C54.1 58.9125 55.5188 56.0812 60.0563 56.0812C60.8375 56.0812 61.6687 56.1062 62.1125 56.175V52.3438C61.5869 52.2648 61.0564 52.223 60.525 52.2187C56.8875 52.2187 54.9562 54.2187 54.2 55.7625H54.075V52.6125H49.875V78.2687V78.2687Z" fill="#00BCD4"/>
</svg>
