<svg width="66" height="50" viewBox="0 0 60 50" fill="none" xmlns="http://www.w3.org/2000/svg">
<path d="M59.843 1.34102V48.815C59.465 49.569 58.698 50.077 57.812 50.077C57.748 50.077 57.685 50.074 57.622 50.069L57.63 50.07H2.194C2.128 50.078 2.051 50.082 1.973 50.082C0.876 50.082 -0.0130005 49.193 -0.0130005 48.096C-0.0130005 48.018 -0.00900049 47.941 -4.88788e-07 47.865L-0.00100049 47.874C-0.00100049 32.6474 -0.00100049 17.421 -0.00100049 2.19502C-0.00600049 2.14002 -0.0100005 2.07602 -0.0100005 2.01102C-0.0100005 0.91402 0.878999 0.0250195 1.976 0.0250195C2.047 0.0250195 2.116 0.0290195 2.185 0.0360195L2.176 0.0350195C20.666 0.0350195 39.1447 0.0350195 57.612 0.0350195C57.687 0.0260195 57.774 0.0200195 57.863 0.0200195C58.75 0.0200195 59.511 0.55902 59.837 1.32702L59.842 1.34102H59.843ZM22.544 25.017V30.609C22.545 30.975 22.596 31.329 22.69 31.665L22.683 31.637C23.038 32.537 23.901 33.162 24.909 33.162C25.419 33.162 25.892 33.002 26.28 32.729L26.272 32.734C29.6 30.818 32.892 28.884 36.185 26.933C36.865 26.565 37.318 25.857 37.318 25.043C37.318 24.229 36.864 23.521 36.196 23.158L36.185 23.152C32.892 21.131 29.513 19.197 26.133 17.246C25.78 17.026 25.351 16.895 24.892 16.895C23.583 16.895 22.523 17.956 22.523 19.264C22.523 19.314 22.525 19.364 22.528 19.413V19.406C22.65 21.27 22.545 23.152 22.545 25.016L22.544 25.017ZM9.443 6.58502V3.60602H3.572V6.58502H9.443ZM3.484 46.41H9.442V43.483H3.484V46.41ZM18.833 3.60502H13.066V6.56702H18.833V3.60502ZM22.456 3.60502V6.56702H28.24V3.51802L22.456 3.60502ZM37.613 6.58502V3.60602H31.846V6.56802L37.613 6.58502ZM47.038 3.60502H41.219V6.56702H47.038V3.60502ZM37.631 46.428V43.588H31.847V46.515L37.631 46.428ZM18.815 46.428V43.588H13.048V46.515L18.815 46.428ZM28.24 46.428V43.588H22.473V46.532L28.24 46.428ZM47.038 43.483H41.219V46.41H47.038V43.483ZM56.289 6.58502V3.51902H50.627V6.58502H56.289ZM56.289 43.483H50.627V46.427H56.306L56.289 43.483Z" fill="#00B7C6"/>
</svg>
