<svg width="100" height="100" viewBox="0 0 100 100" fill="none" xmlns="http://www.w3.org/2000/svg">
    <path fill-rule="evenodd" clip-rule="evenodd" d="M0 0H6.25V93.75H100V100H0V0ZM62.5 21.875C62.5 21.0462 62.8292 20.2513 63.4153 19.6653C64.0013 19.0792 64.7962 18.75 65.625 18.75H90.625C91.4538 18.75 92.2487 19.0792 92.8347 19.6653C93.4208 20.2513 93.75 21.0462 93.75 21.875V46.875C93.75 47.7038 93.4208 48.4987 92.8347 49.0847C92.2487 49.6708 91.4538 50 90.625 50C89.7962 50 89.0013 49.6708 88.4153 49.0847C87.8292 48.4987 87.5 47.7038 87.5 46.875V30.625L64.9188 58.2313C64.6423 58.5687 64.2983 58.8445 63.9089 59.0409C63.5194 59.2374 63.0931 59.3501 62.6575 59.3719C62.2219 59.3937 61.7865 59.324 61.3794 59.1674C60.9723 59.0108 60.6025 58.7707 60.2938 58.4625L44.125 42.2938L21.275 73.7125C20.7751 74.3481 20.0484 74.7652 19.2474 74.8762C18.4464 74.9871 17.6336 74.7833 16.9798 74.3075C16.326 73.8317 15.8821 73.121 15.7413 72.3247C15.6006 71.5284 15.7739 70.7086 16.225 70.0375L41.225 35.6625C41.4904 35.297 41.8318 34.9933 42.2258 34.7724C42.6198 34.5515 43.057 34.4187 43.5073 34.3831C43.9576 34.3474 44.4103 34.4098 44.8341 34.566C45.258 34.7221 45.6429 34.9683 45.9625 35.2875L62.2688 51.6L84.0312 25H65.625C64.7962 25 64.0013 24.6708 63.4153 24.0847C62.8292 23.4987 62.5 22.7038 62.5 21.875Z" fill="#00BCD4"/>
</svg>
