<svg width="88" height="100" viewBox="0 0 88 100" fill="none" xmlns="http://www.w3.org/2000/svg">
    <path d="M34.3721 0C33.5433 0 32.7484 0.32924 32.1624 0.915291C31.5763 1.50134 31.2471 2.2962 31.2471 3.125C31.2471 3.9538 31.5763 4.74866 32.1624 5.33471C32.7484 5.92076 33.5433 6.25 34.3721 6.25H37.4971V12.9375C26.5499 14.5197 16.6082 20.1892 9.67209 28.8052C2.73603 37.4212 -0.679611 48.3443 0.112387 59.3768C0.904386 70.4094 5.84525 80.7326 13.9409 88.2695C22.0365 95.8064 32.6862 99.9977 43.7471 100C52.134 99.9997 60.3441 97.5887 67.3995 93.0542C74.4549 88.5197 80.0582 82.0528 83.5421 74.4237C87.026 66.7947 88.2437 58.325 87.0501 50.0235C85.8564 41.7219 82.3018 33.9384 76.8096 27.6C76.8371 27.5755 76.8642 27.5504 76.8908 27.525L79.1033 25.3125L81.3096 27.525C81.5979 27.8235 81.9427 28.0615 82.324 28.2253C82.7052 28.3891 83.1153 28.4753 83.5302 28.4789C83.9451 28.4825 84.3566 28.4034 84.7407 28.2463C85.1247 28.0892 85.4737 27.8571 85.7671 27.5637C86.0605 27.2703 86.2925 26.9214 86.4497 26.5374C86.6068 26.1533 86.6859 25.7418 86.6822 25.3269C86.6786 24.9119 86.5924 24.5019 86.4287 24.1206C86.2649 23.7393 86.0268 23.3945 85.7283 23.1063L76.8908 14.2625C76.6026 13.964 76.2577 13.726 75.8765 13.5622C75.4952 13.3984 75.0852 13.3122 74.6702 13.3086C74.2553 13.305 73.8438 13.3841 73.4597 13.5412C73.0757 13.6983 72.7268 13.9304 72.4334 14.2238C72.1399 14.5172 71.9079 14.8661 71.7508 15.2501C71.5936 15.6342 71.5146 16.0457 71.5182 16.4606C71.5218 16.8756 71.608 17.2856 71.7718 17.6669C71.9356 18.0482 72.1736 18.393 72.4721 18.6813L74.6846 20.8937L72.4721 23.1063C72.4468 23.131 72.4218 23.156 72.3971 23.1813C66.07 17.6861 58.2927 14.1316 49.9971 12.9438V6.25H53.1221C53.9509 6.25 54.7457 5.92076 55.3318 5.33471C55.9179 4.74866 56.2471 3.9538 56.2471 3.125C56.2471 2.2962 55.9179 1.50134 55.3318 0.915291C54.7457 0.32924 53.9509 0 53.1221 0L34.3721 0ZM46.8721 35V56.25C46.8721 57.0788 46.5429 57.8737 45.9568 58.4597C45.3708 59.0458 44.5759 59.375 43.7471 59.375H21.8721C21.0433 59.375 20.2484 59.0458 19.6624 58.4597C19.0763 57.8737 18.7471 57.0788 18.7471 56.25C18.7471 55.4212 19.0763 54.6263 19.6624 54.0403C20.2484 53.4542 21.0433 53.125 21.8721 53.125H40.6221V35C40.6221 34.1712 40.9513 33.3763 41.5374 32.7903C42.1234 32.2042 42.9183 31.875 43.7471 31.875C44.5759 31.875 45.3708 32.2042 45.9568 32.7903C46.5429 33.3763 46.8721 34.1712 46.8721 35V35Z" fill="#00BCD4"/>
</svg>
