<svg width="66" height="50" viewBox="0 0 66 50" fill="none" xmlns="http://www.w3.org/2000/svg">
<g clip-path="url(#clip0_58_104)">
<path d="M1.09897e-06 48.5369V1.53086C0.362001 0.642855 1.22 0.0278555 2.22 0.0278555C2.28 0.0278555 2.34 0.0298555 2.399 0.0348555H2.391H63.727C63.784 0.0298555 63.851 0.0268555 63.918 0.0268555C65.158 0.0268555 66.163 1.03186 66.163 2.27186C66.163 2.33886 66.16 2.40586 66.154 2.47086L66.155 2.46286C66.155 11.9369 66.155 21.4119 66.155 30.8679C66.155 36.5089 66.155 42.1489 66.155 47.7899C66.163 47.8559 66.167 47.9329 66.167 48.0109C66.167 49.1099 65.276 50.0009 64.177 50.0009C64.147 50.0009 64.117 49.9999 64.087 49.9989H64.091H2.645C2.543 50.0129 2.426 50.0219 2.306 50.0219C1.287 50.0219 0.408001 49.4209 0.0050011 48.5549L-0.0019989 48.5389L1.09897e-06 48.5369ZM62.066 4.17786H4.125V32.1259L4.764 31.6879L15.991 23.6379C16.388 23.2399 16.936 22.9939 17.543 22.9939C18.15 22.9939 18.698 23.2399 19.095 23.6379L30.888 32.0899C32.713 33.4039 34.539 34.7189 36.364 35.9969C36.696 36.2529 37.117 36.4079 37.575 36.4079C38.476 36.4079 39.237 35.8099 39.482 34.9889L39.486 34.9749C39.537 34.8049 39.566 34.6099 39.566 34.4069C39.566 33.6339 39.141 32.9599 38.511 32.6069L38.501 32.6019C35.9577 30.8132 33.469 29.0182 31.035 27.2169L30.469 26.7969L30.798 26.5409L40.966 19.2389C41.363 18.8409 41.911 18.5949 42.518 18.5949C43.125 18.5949 43.673 18.8409 44.07 19.2389L61.412 31.6889L62.051 32.1089L62.066 4.17786Z" fill="#00B7C6"/>
<path d="M26.962 9.37991C29.987 9.37991 32.438 11.8319 32.438 14.8559C32.484 15.1239 32.511 15.4329 32.511 15.7469C32.511 18.7719 30.059 21.2229 27.035 21.2229C24.011 21.2229 21.559 18.7709 21.559 15.7469C21.559 15.4319 21.586 15.1239 21.637 14.8229L21.632 14.8549C21.632 14.8539 21.632 14.8539 21.632 14.8529C21.632 11.8799 24.001 9.45991 26.955 9.37891H26.963L26.962 9.37991Z" fill="#00B7C6"/>
</g>
<defs>
<clipPath id="clip0_58_104">
<rect width="66" height="50" fill="white"/>
</clipPath>
</defs>
</svg>
