<svg width="62" height="50" viewBox="0 0 62 50" fill="none" xmlns="http://www.w3.org/2000/svg">
<g clip-path="url(#clip0_58_109)">
<path d="M30.897 50.0696C22.766 50.0696 14.635 50.0696 6.505 50.0696C6.478 50.0696 6.447 50.0706 6.415 50.0706C2.872 50.0706 0 47.1986 0 43.6556C0 43.6236 0 43.5926 0.001 43.5606V43.5656C0.0723333 34.1303 0.0723333 24.6889 0.001 15.2416C0.001 15.2306 0.001 15.2186 0.001 15.2056C0.001 11.6526 2.881 8.7726 6.434 8.7726C22.767 8.7726 39.082 8.7726 55.415 8.7726C55.497 8.7686 55.593 8.7666 55.69 8.7666C59.085 8.7666 61.837 11.5186 61.837 14.9136C61.837 15.0166 61.834 15.1186 61.829 15.2196L61.83 15.2056V43.5656C61.837 43.6746 61.841 43.8016 61.841 43.9306C61.841 47.3256 59.089 50.0776 55.694 50.0776C55.59 50.0776 55.486 50.0746 55.383 50.0696L55.398 50.0706L30.897 50.0696ZM30.897 43.9046C30.939 43.9046 30.99 43.9056 31.04 43.9056C39.014 43.9056 45.479 37.4406 45.479 29.4666C45.479 21.4926 39.014 15.0276 31.04 15.0276C23.078 15.0276 16.622 21.4716 16.601 29.4276V29.4296C16.65 37.3146 22.988 43.7026 30.849 43.8326H30.861L30.897 43.9046ZM12.384 19.0826C12.345 17.9616 11.436 17.0646 10.313 17.0456H10.311C9.176 17.0456 8.256 17.9656 8.256 19.1006C8.256 20.2356 9.176 21.1556 10.311 21.1556C11.448 21.1356 12.364 20.2196 12.384 19.0846V19.0826Z" fill="#00B7C6"/>
<path d="M42.28 6.199H19.532C19.889 4.769 20.211 3.393 20.568 2.017C20.646 0.887 21.582 0 22.725 0C22.859 0 22.991 0.012 23.118 0.036L23.105 0.034H38.938C39.008 0.026 39.089 0.021 39.17 0.021C40.219 0.021 41.085 0.8 41.224 1.81L41.225 1.821C41.565 3.108 41.886 4.394 42.208 5.681C42.244 5.842 42.244 6.003 42.279 6.199H42.28Z" fill="#00B7C6"/>
<path d="M30.861 43.8331C22.902 43.8121 16.459 37.3561 16.459 29.3941C16.459 21.4201 22.924 14.9551 30.898 14.9551C38.872 14.9551 45.337 21.4201 45.337 29.3941C45.337 29.4441 45.337 29.4941 45.336 29.5451V29.5371C45.215 37.4461 38.785 43.8141 30.863 43.8331H30.861V43.8331ZM30.861 39.7051C36.556 39.7051 41.172 35.0891 41.172 29.3941C41.172 23.6991 36.556 19.0831 30.861 19.0831C25.179 19.0831 20.57 23.6791 20.55 29.3561V29.3581C20.55 29.3791 20.55 29.4051 20.55 29.4301C20.55 35.1051 25.15 39.7051 30.825 39.7051C30.863 39.7051 30.901 39.7051 30.938 39.7041H30.932L30.861 39.7051Z" fill="#00B7C6"/>
<path d="M12.384 19.0829C12.365 20.2079 11.468 21.1169 10.35 21.1559H10.346C9.21102 21.1559 8.29102 20.2359 8.29102 19.1009C8.29102 17.9659 9.21102 17.0459 10.346 17.0459C11.455 17.0839 12.345 17.9739 12.383 19.0799V19.0839L12.384 19.0829Z" fill="#00B7C6"/>
<path d="M31.129 21.174C35.507 21.318 39.019 24.835 39.152 29.203V29.216C39.154 29.254 39.156 29.299 39.156 29.345C39.156 30.477 38.272 31.402 37.156 31.468H37.15C37.145 31.468 37.138 31.468 37.132 31.468C35.987 31.468 35.059 30.54 35.059 29.395C35.02 27.143 33.215 25.326 30.972 25.267H30.966C30.949 25.267 30.93 25.268 30.91 25.268C29.785 25.268 28.873 24.356 28.873 23.231C28.873 23.199 28.874 23.168 28.875 23.136V23.14C28.929 22.039 29.836 21.166 30.946 21.166C31.01 21.166 31.073 21.169 31.135 21.174L31.127 21.173L31.129 21.174Z" fill="#00B7C6"/>
</g>
<defs>
<clipPath id="clip0_58_109">
<rect width="62" height="50" fill="white"/>
</clipPath>
</defs>
</svg>
