<svg width="40" height="40" viewBox="0 0 64 61" fill="none" xmlns="http://www.w3.org/2000/svg">
<path d="M2.29272 57.0005L16.0583 19.2646C16.6343 17.6854 17.901 16.4563 19.4968 15.9281L37.563 9.94764C43.1735 8.09043 47.3646 15.1812 43.0323 19.2008L2.29272 57.0005Z" fill="#B7D4DA" stroke="black" stroke-width="2.75"/>
<path d="M61.8635 56.6807L48.6095 18.4222C48.0275 16.7422 46.6692 15.4471 44.9634 14.9458L24.9804 9.07281C19.3771 7.42601 15.4085 14.4951 19.7321 18.4213L61.8635 56.6807Z" fill="#00B7C6" stroke="black" stroke-width="2.75"/>
<path d="M61.8635 56.6807L61.6295 12.9996C61.597 6.92457 56.6458 2.02615 50.5708 2.05869L28.4888 2.17698C23.8506 2.20182 21.3239 7.60365 24.2778 11.1796L61.8635 56.6807Z" fill="#00FFE0"/>
<path d="M61.8635 56.6807L61.6295 12.9996C61.597 6.92457 56.6458 2.02615 50.5708 2.05869L28.4888 2.17698C23.8506 2.20182 21.3239 7.60365 24.2778 11.1796L61.8635 56.6807Z" fill="#11DBEC"/>
<path d="M61.8635 56.6807L61.6295 12.9996C61.597 6.92457 56.6458 2.02615 50.5708 2.05869L28.4888 2.17698C23.8506 2.20182 21.3239 7.60365 24.2778 11.1796L61.8635 56.6807Z" fill="url(#paint0_linear_41_98)" fill-opacity="0.22"/>
<path d="M61.8635 56.6807L61.6295 12.9996C61.597 6.92457 56.6458 2.02615 50.5708 2.05869L28.4888 2.17698C23.8506 2.20182 21.3239 7.60365 24.2778 11.1796L61.8635 56.6807Z" stroke="black" stroke-width="2.75"/>
<path opacity="0.22" d="M33.7565 22.6548L46.6778 2.07962L28.1351 15.8496L33.7565 22.6548Z" fill="black"/>
<path d="M2.29272 57.0005L2.05873 13.3194C2.02619 7.24439 6.92459 2.29321 12.9996 2.26067L46.6778 2.08026L2.29272 57.0005Z" fill="#3C727E"/>
<path d="M2.29272 57.0005L2.05873 13.3194C2.02619 7.24439 6.92459 2.29321 12.9996 2.26067L46.6778 2.08026L2.29272 57.0005Z" fill="url(#paint1_linear_41_98)" fill-opacity="0.2"/>
<path d="M2.29272 57.0005L2.05873 13.3194C2.02619 7.24439 6.92459 2.29321 12.9996 2.26067L46.6778 2.08026L2.29272 57.0005Z" stroke="black" stroke-width="2.75"/>
<path opacity="0.2" d="M9.55583 22.7837L9.54152 20.1133C9.50898 14.0382 14.4074 9.08705 20.4824 9.0545L24.3753 9.03365M9.59244 29.6188L9.61075 33.0363" stroke="white" stroke-width="5.5" stroke-linecap="round" stroke-linejoin="round"/>
<defs>
<linearGradient id="paint0_linear_41_98" x1="39.5245" y1="56.8003" x2="39.2316" y2="2.11943" gradientUnits="userSpaceOnUse">
<stop stop-color="white"/>
<stop offset="1" stop-color="white" stop-opacity="0"/>
</linearGradient>
<linearGradient id="paint1_linear_41_98" x1="24.6317" y1="56.8808" x2="24.3388" y2="2.19993" gradientUnits="userSpaceOnUse">
<stop stop-color="white"/>
<stop offset="1" stop-color="white" stop-opacity="0"/>
</linearGradient>
</defs>
</svg>
